HIERARCHY
ROOT Hips
{
	OFFSET -0.001795 -0.223333 0.028219
	CHANNELS 6 Xposition Yposition Zposition Zrotation Yrotation Xrotation 
	JOINT LeftUpLeg
	{
		OFFSET 0.069520 -0.091406 -0.006815
		CHANNELS 3 Zrotation Yrotation Xrotation
		JOINT LeftLeg
		{
			OFFSET 0.034277 -0.375199 -0.004496
			CHANNELS 3 Zrotation Yrotation Xrotation
			JOINT LeftFoot
			{
				OFFSET -0.013596 -0.397961 -0.043693
				CHANNELS 3 Zrotation Yrotation Xrotation
				JOINT LeftToe
				{
					OFFSET 0.026358 -0.055791 0.119288
					CHANNELS 3 Zrotation Yrotation Xrotation
					End Site
					{
						OFFSET 0.000000 0.000000 0.000000
					}
				}
			}
		}
	}
	JOINT RightUpLeg
	{
		OFFSET -0.067670 -0.090522 -0.004320
		CHANNELS 3 Zrotation Yrotation Xrotation
		JOINT RightLeg
		{
			OFFSET -0.038290 -0.382569 -0.008850
			CHANNELS 3 Zrotation Yrotation Xrotation
			JOINT RightFoot
			{
				OFFSET 0.015774 -0.398415 -0.042312
				CHANNELS 3 Zrotation Yrotation Xrotation
				JOINT RightToe
				{
					OFFSET -0.025372 -0.048144 0.123348
					CHANNELS 3 Zrotation Yrotation Xrotation
					End Site
					{
						OFFSET 0.000000 0.000000 0.000000
					}
				}
			}
		}
	}
	JOINT Spine
	{
		OFFSET -0.002533 0.108963 -0.026696
		CHANNELS 3 Zrotation Yrotation Xrotation
		JOINT Spine1
		{
			OFFSET 0.005487 0.135180 0.001092
			CHANNELS 3 Zrotation Yrotation Xrotation
			JOINT Spine2
			{
				OFFSET 0.001457 0.052922 0.025425
				CHANNELS 3 Zrotation Yrotation Xrotation
				JOINT Neck
				{
					OFFSET -0.002778 0.213870 -0.042857
					CHANNELS 3 Zrotation Yrotation Xrotation
					JOINT Head
					{
						OFFSET 0.005152 0.064970 0.051349
						CHANNELS 3 Zrotation Yrotation Xrotation
						End Site
						{
							OFFSET 0.000000 0.000000 0.000000
						}
					}
				}
				JOINT LeftShoulder
				{
					OFFSET 0.078845 0.121749 -0.034090
					CHANNELS 3 Zrotation Yrotation Xrotation
					JOINT LeftArm
					{
						OFFSET 0.090977 0.030469 -0.008868
						CHANNELS 3 Zrotation Yrotation Xrotation
						JOINT LeftForeArm
						{
							OFFSET 0.259612 -0.012772 -0.027456
							CHANNELS 3 Zrotation Yrotation Xrotation
							JOINT LeftHand
							{
								OFFSET 0.249234 0.008986 -0.001171
								CHANNELS 3 Zrotation Yrotation Xrotation
								End Site
								{
									OFFSET 0.000000 0.000000 0.000000
								}
							}
						}
					}
				}
				JOINT RightShoulder
				{
					OFFSET -0.081759 0.118833 -0.038615
					CHANNELS 3 Zrotation Yrotation Xrotation
					JOINT RightArm
					{
						OFFSET -0.096012 0.032551 -0.009143
						CHANNELS 3 Zrotation Yrotation Xrotation
						JOINT RightForeArm
						{
							OFFSET -0.253742 -0.013329 -0.021401
							CHANNELS 3 Zrotation Yrotation Xrotation
							JOINT RightHand
							{
								OFFSET -0.255298 0.007772 -0.005559
								CHANNELS 3 Zrotation Yrotation Xrotation
								End Site
								{
									OFFSET 0.000000 0.000000 0.000000
								}
							}
						}
					}
				}
			}
		}
	}
}
MOTION
Frames: 8
Frame Time: 0.050000
0.040417 0.694971 -0.364553 -3.354949 5.249424 5.352408 28.378929 4.211878 -37.855540 -1.745773 -3.397151 75.374826 6.715227 11.478195 -13.055066 0.000000 0.000000 0.000000 -21.832344 -8.263804 -63.709667 15.851067 -10.400588 61.634852 -11.256572 -26.898096 -0.239496 0.000000 0.000000 0.000000 -1.745730 -3.380438 57.774385 4.252654 -0.139755 -26.580566 7.232662 9.995301 22.979498 -5.433440 5.479758 -44.983962 0.000000 0.000000 0.000000 -23.560798 -28.888769 11.977807 -42.396429 -44.954554 9.968145 24.390899 -40.565827 -7.745480 0.000000 0.000000 0.000000 -4.409241 40.954277 13.587667 11.982976 46.540961 1.951021 -25.332606 13.294309 -2.050920 0.000000 0.000000 0.000000 
0.051986 0.696910 -0.383359 -3.943852 4.975067 4.809282 27.892086 4.163984 -37.883755 -0.941135 -4.306088 77.190559 6.241046 10.289185 -12.451740 0.000000 0.000000 0.000000 -21.753433 -8.024893 -63.265720 15.477875 -9.670412 59.433258 -11.086799 -26.089876 2.451310 0.000000 0.000000 0.000000 -1.963413 -3.133640 57.173275 3.931726 -0.027453 -27.551267 7.868723 10.909244 24.749539 -5.245384 5.552153 -45.115621 0.000000 0.000000 0.000000 -21.584831 -28.760095 11.381865 -44.598523 -47.508888 11.430360 25.135844 -43.596171 -8.765485 0.000000 0.000000 0.000000 -8.052587 42.203677 12.240278 7.053263 46.077048 0.522589 -24.269355 10.688972 -1.492598 0.000000 0.000000 0.000000 
0.066566 0.697886 -0.402543 -4.269865 4.963600 4.086033 27.727158 4.166426 -38.070375 -1.662804 -3.867650 79.662965 6.232964 11.209755 -9.035685 0.000000 0.000000 0.000000 -22.294475 -8.290743 -62.788073 15.234598 -9.168712 57.672901 -10.771330 -25.012580 5.505519 0.000000 0.000000 0.000000 -2.390192 -2.817832 56.159946 3.937499 -0.057356 -27.109258 7.769889 11.937280 24.953448 -5.110241 5.586325 -45.842327 0.000000 0.000000 0.000000 -19.863084 -29.227088 11.089824 -46.856865 -49.558005 12.990417 25.741672 -46.956518 -9.970785 0.000000 0.000000 0.000000 -9.961421 43.351534 11.714385 2.046130 45.995308 -0.917035 -22.295620 8.920049 -1.080599 0.000000 0.000000 0.000000 
0.084887 0.702258 -0.422914 -4.888053 4.650430 3.393945 28.089314 4.254992 -37.202072 -2.376484 -3.061641 79.439457 6.882033 12.292749 -11.512813 0.000000 0.000000 0.000000 -23.094995 -8.298579 -60.894462 15.728045 -8.774178 53.473377 -10.507923 -24.153610 8.682518 0.000000 0.000000 0.000000 -3.270800 -2.179952 55.042001 3.714192 -0.013162 -27.197053 8.777604 13.123741 25.562901 -5.856207 5.988136 -45.479020 0.000000 0.000000 0.000000 -17.678582 -30.388474 11.204935 -47.903438 -51.694331 14.043207 28.398832 -46.597770 -11.197673 0.000000 0.000000 0.000000 -11.241071 44.303577 11.324105 0.028036 45.579059 -1.381160 -22.067900 8.432980 -0.987436 0.000000 0.000000 0.000000 
0.106730 0.708896 -0.445420 -5.576258 5.146575 2.805805 28.438682 4.185917 -36.801429 -4.544096 -1.135030 79.451833 7.383810 13.645934 -11.531358 0.000000 0.000000 0.000000 -23.179598 -8.291342 -59.281715 14.431507 -7.519029 50.072142 -10.013825 -22.866366 12.847278 0.000000 0.000000 0.000000 -4.004430 -1.905645 54.240983 4.564549 -0.195175 -27.102527 9.376480 13.558176 25.997887 -6.301159 6.172475 -46.075657 0.000000 0.000000 0.000000 -16.948150 -31.490277 11.532029 -46.121072 -54.674232 14.484980 27.197274 -42.429502 -9.616006 0.000000 0.000000 0.000000 -12.104166 45.764211 11.286290 -3.231730 45.791522 -2.344869 -21.574723 8.344397 -0.973091 0.000000 0.000000 0.000000 
0.130539 0.722251 -0.470702 -6.218230 5.715887 1.921125 27.578710 3.788185 -36.504150 -6.342741 0.291565 79.134715 8.008018 15.191436 -12.332998 0.000000 0.000000 0.000000 -24.319072 -8.633024 -56.315802 14.785555 -7.079923 44.859710 -9.598714 -21.803098 17.996922 0.000000 0.000000 0.000000 -5.131494 -1.452802 53.373507 6.146701 -0.696836 -24.848100 9.317808 14.496360 24.429083 -6.762587 6.390368 -46.058131 0.000000 0.000000 0.000000 -14.452240 -33.559248 12.002882 -40.565815 -57.658953 12.994336 25.499064 -36.620189 -7.711690 0.000000 0.000000 0.000000 -12.080691 45.690972 11.439393 -4.985682 47.470660 -2.874280 -22.755065 9.325550 -1.205325 0.000000 0.000000 0.000000 
0.153371 0.738205 -0.498063 -6.947603 6.161149 1.803253 26.870727 3.442993 -36.142110 -8.698041 2.369134 77.501674 8.520728 16.849192 -10.062738 0.000000 0.000000 0.000000 -24.963822 -8.935165 -55.135149 14.778397 -6.716985 41.833826 -8.741431 -20.265668 24.202390 0.000000 0.000000 0.000000 -7.435269 -0.373258 52.040430 9.364746 -1.513136 -24.299986 10.805689 14.964399 25.728201 -8.499244 7.018801 -46.276739 0.000000 0.000000 0.000000 -12.625776 -34.475708 12.093746 -32.550199 -60.392334 9.551260 24.679149 -30.198139 -6.023024 0.000000 0.000000 0.000000 -14.921209 46.683377 10.188005 -5.487523 50.066014 -2.929875 -25.919851 8.698417 -1.288391 0.000000 0.000000 0.000000 
0.172605 0.753601 -0.525047 -8.175928 6.238299 1.595927 26.490818 3.383991 -36.686322 -10.401003 3.940792 77.275416 8.746330 18.069167 -1.607191 0.000000 0.000000 0.000000 -23.975289 -8.564902 -55.696422 15.116351 -6.937502 41.935655 -8.182545 -19.447008 28.163885 0.000000 0.000000 0.000000 -8.374690 0.046572 51.288036 11.717034 -2.166890 -23.743466 10.166714 14.400931 25.925295 -9.387895 7.209416 -46.814871 0.000000 0.000000 0.000000 -8.716842 -33.580339 11.350894 -21.809605 -61.642059 3.870002 23.652178 -24.402797 -4.587488 0.000000 0.000000 0.000000 -12.853731 47.423244 11.378545 -8.953384 53.478419 -4.821234 -29.446945 9.913425 -1.861959 0.000000 0.000000 0.000000 
